PathFileType	4	(X/Y/Z)	Patient4_TMGait_0pt3_02_left_18.trc.trc
DataRate	CameraRate	NumFrames	NumMarkers	Units	OrigDataRate	OrigDataStartFrame	OrigNumFrames
48.611111111111	48.611111111111	5	33	mm	48.611111111111	71	       141
Frame#	Time	Sacral			L.Shoulder			Chest			R.Shoulder			Neck			R.ASIS			L.ASIS			R.Thigh.Superior			R.Thigh.Lateral			R.Thigh.Inferior			R.Patella			L.Thigh.Superior			L.Thigh.Lateral			L.Thigh.Inferior			L.Patella			L.Shank.Superior			L.Shank.Lateral			L.Shank.Inferior			R.Shank.Superior			R.Shank.Lateral			R.Shank.Inferior			R.Heel			R.Midfoot.Superior			R.Midfoot.Lateral			R.Toe			L.Heel			L.Midfoot.Lateral			L.Midfoot.Superior			L.Toe			L.Elbow			L.Wrist			R.Elbow			R.Wrist			
		X1	Y1	Z1	X2	Y2	Z2	X3	Y3	Z3	X4	Y4	Z4	X5	Y5	Z5	X6	Y6	Z6	X7	Y7	Z7	X8	Y8	Z8	X9	Y9	Z9	X10	Y10	Z10	X11	Y11	Z11	X12	Y12	Z12	X13	Y13	Z13	X14	Y14	Z14	X15	Y15	Z15	X16	Y16	Z16	X17	Y17	Z17	X18	Y18	Z18	X19	Y19	Z19	X20	Y20	Z20	X21	Y21	Z21	X22	Y22	Z22	X23	Y23	Z23	X24	Y24	Z24	X25	Y25	Z25	X26	Y26	Z26	X27	Y27	Z27	X28	Y28	Z28	X29	Y29	Z29	X30	Y30	Z30	X31	Y31	Z31	X32	Y32	Z32	X33	Y33	Z33	

71	36.360000000000	672.853796661392	1008.129746443839	422.581632496020	913.380119350625	1440.193596224392	297.411881971564	969.687853025713	1358.149976981011	473.107660470477	850.287938397951	1428.290682000077	626.252123422847	863.026946769493	1493.636547743075	451.411186434858	880.987316681536	943.347788020323	579.374363700224	911.775955749227	959.974372599852	306.131709716526	964.691909606634	777.302311030754	545.634227416641	922.915350046855	653.733250952848	612.733389620707	1009.853153521291	618.170144845269	531.197495014476	1042.638760481926	529.104337179152	550.490911081369	934.128948554472	734.953227222606	350.776110621463	843.452298706890	621.935585917974	282.977550765786	905.777593766725	542.162545397230	364.465476058839	897.095634340212	472.514911610650	376.110905977340	860.492805024098	402.690957811425	365.453045566329	762.975381619284	298.221491080553	309.328435933552	787.871224308672	185.205391941073	388.987973829204	1014.044879743288	439.221068663308	562.259532217736	944.558723859722	337.228785893012	628.022007316619	999.228525402597	241.297854668275	577.482470116798	880.793753048467	63.961335581902	552.459506655427	1048.444274176329	127.241588278207	590.966500805639	966.432008174839	55.513396234024	623.963591926365	1170.931645869329	84.298550480332	614.017747454394	640.228398668261	38.894343547767	423.319286561197	717.853057240505	35.878577781768	346.595041277311	801.619379666438	95.318198612270	378.352054333171	930.023649387036	39.594262482036	353.997165780887	1050.410421908670	1156.203455865628	127.866599282466	1300.434675789778	1092.586113882514	167.460133383647	677.808466395348	1114.509506486107	687.083137608915	631.326115079082	858.986850996806	700.404545492698	
72	36.380571428571	673.708283673119	1007.664298264662	423.039271964839	914.909562766615	1439.940425561501	300.034001605911	969.606347467770	1358.110724567653	476.295497670229	848.668824719600	1428.496581936342	628.143114405179	863.014366267450	1493.398654069344	453.361601571266	880.205212475153	942.697031494097	581.879004746838	913.597391685502	959.660018203881	308.880224125377	961.359853795130	773.769011009249	550.828226752584	915.720244731976	650.936962206637	617.406296637583	1003.150384947791	614.528048606904	537.109470933884	1035.022720636643	528.799284920023	555.464549257038	932.262527849634	733.699172594694	353.101023315135	840.339659844974	622.118719040729	283.485204966490	900.548807630109	541.151620734195	364.970751388058	890.591165087201	471.998594333265	376.328273475013	854.414233949252	402.541948749340	365.506987476375	756.973338904810	298.101032895680	309.201127612461	781.609157263785	185.121986492150	388.960244384345	1012.570488272860	438.355457833199	567.102960309616	950.688914037940	330.990178543003	633.939581890307	1011.656646159130	238.517133502852	582.423075642408	904.561147024267	52.957170934290	558.794349669135	1069.348014006539	126.355875149858	594.943643773442	992.200196628483	48.529545083294	628.544364481780	1195.728178747800	90.863361515341	615.453636801251	633.986018717459	38.850255700397	423.258833526573	711.597799397019	35.809655156323	346.533441852236	795.339777852883	95.251920221837	378.340053669375	923.752787458414	39.581384090824	354.057427435922	1057.971203354069	1159.425487854103	131.651146754334	1309.932750940618	1108.382371823430	174.798229878153	675.090490922008	1115.456628712889	687.680486903100	632.198284725760	859.227758560145	701.325483235789	
73	36.401142857143	674.859696122868	1006.665673896143	424.083936174245	916.221260864682	1439.199874262489	302.900463880793	969.707652474254	1357.642214120853	479.629425647644	847.493431582481	1428.194809064061	630.402525438374	863.092837600735	1492.715512666508	455.649821842505	879.934844089186	941.447269013838	584.544031082608	915.560795446361	958.943045690333	311.802200928208	958.720435067562	769.878967957048	555.986862353389	909.296063631891	647.680047911594	621.834745626509	997.354886120427	610.622634174130	542.793024350671	1027.844348143298	527.615766625766	560.158192778367	930.853821822512	732.227608727544	355.279185305877	837.579705845791	622.071891575394	284.154736246020	895.881978396683	539.972302876665	365.454289444235	884.705131134858	471.290643656523	376.567831493620	848.846692118013	402.171610395477	365.630697274107	751.284122016776	297.924829805754	309.152277459799	775.517922788924	184.926176678823	388.962775125020	1010.573973654355	436.854710148219	571.696978906314	954.892976625360	325.520855901574	639.139645693816	1020.869071273092	236.175829156879	586.976451417260	923.243421097056	45.233810339221	564.114298420496	1085.238332475620	125.799903613067	598.855381754960	1011.995655419100	43.701935291655	632.617302839270	1213.990044578868	95.908900582818	617.540766120367	627.744148215366	38.781537594768	423.207692059893	705.343724275279	35.727982064998	346.477557276229	789.054845908718	95.177281532008	378.332948895503	917.474592489182	39.562898322253	354.113648208969	1064.674789090461	1161.616796303898	135.948089993076	1317.862747890532	1122.320812839969	182.305239657656	674.023394891037	1115.136626774737	688.948560245531	636.189975898812	857.994620216818	702.995261847604	
74	36.421714285714	676.323512762276	1005.247014313561	425.728905755351	917.367911504793	1438.070275791228	306.058371351541	970.017400191053	1356.824178031955	483.166994070115	846.757082257370	1427.452722942440	633.085496609917	863.281178603521	1491.666122476771	458.335172761290	880.220420045283	939.702054619794	587.395639653698	917.680622658879	957.916356086895	314.904928318324	956.979280429912	765.928666702901	560.946039368766	904.007201689941	644.189009381304	625.851316035374	992.841937001373	606.745903064192	548.076488512076	1021.578868283779	525.745960980689	564.456000793427	929.867150322949	730.564848742636	357.316248482725	835.084023366427	621.854337449520	285.010083162227	891.677634931600	538.669054908902	365.947793624862	879.337156318147	470.436076065674	376.865768215876	843.690044357202	401.631946377680	365.843786484239	745.822416210318	297.733236669255	309.195561723617	769.563283744076	184.652608198870	389.006685669387	1008.414497615979	434.815885226883	575.911814834399	957.282025287709	320.790342922058	643.435620719932	1026.987852943822	234.062664879121	590.959687945301	936.562024581020	40.354585843470	568.172914333579	1096.190340961183	125.200017272894	602.515155925731	1025.631881436266	40.582891303118	636.041571674946	1226.022530792126	98.924251471196	620.233394070883	621.499351497040	38.684586006657	423.164829492429	699.089146398078	35.635033072934	346.432195315256	782.764256946036	95.106397466930	378.326939091124	911.188700913168	39.540288039037	354.160666595789	1070.479994911694	1162.806324551902	140.709564458438	1324.332320860197	1134.294501826844	189.880506109071	674.523491323241	1113.660137820497	690.909578808913	643.012202457753	855.516237572931	705.434542650050	
75	36.442285714286	678.107471013459	1003.557477288629	427.965605549518	918.422899890216	1436.677838999167	309.550677301496	970.566380150672	1355.757069129394	486.960044026441	846.458980596321	1426.365991800529	636.231787795083	863.606930691398	1490.354766536485	461.466370060087	881.089984679256	937.603730048151	590.458550110014	919.965791344233	956.692269486359	318.196091389790	956.262430821228	762.169642287533	565.576759984173	900.102020194005	640.684086928546	629.367821598323	989.835950436529	603.127853919843	552.850434899323	1016.578599606334	523.393131644248	568.297351630061	929.235954647428	728.751555202629	359.245067256374	832.753764182429	621.539113784333	286.074847587998	887.812035605505	537.297443634461	366.494677631055	874.360667306594	469.490048683812	377.262450763946	838.823743318849	400.988958479218	366.168769787025	740.491392322808	297.574036325096	309.345947422445	763.705659516810	184.344920585200	389.104391331490	1006.412686827890	432.364130680387	579.664466589514	958.117524868158	316.726120266991	646.759018485050	1030.350816508057	231.992289845890	594.253494368085	944.682805448134	37.759461709819	570.880531351948	1102.615524831189	124.243889262111	605.737777642061	1033.416023222856	38.699495984372	638.744683694340	1232.511462706889	99.636553456762	623.369331094415	615.247952164832	38.563256886791	423.130349969011	692.833486676024	35.536146215007	346.402937414629	776.470797890586	95.053349811218	378.319810450836	904.897852157670	39.513935160160	354.193851304690	1075.369489114194	1163.072237466076	145.872878611058	1329.464250029538	1144.249899138792	197.431131586528	676.474978930001	1111.205737556647	693.568089554518	652.348661319958	852.096014726069	708.662176160700	
